PathFileType	4	(X/Y/Z)	RBDS028\RBDS028runT35.trc
DataRate	CameraRate	NumFrames	NumMarkers	Units	OrigDataRate	OrigDataStartFrame	OrigNumFrames
150.000000	150.000000	4	33	mm	150.000000	3937	4500
Frame#	Time	L.ASIS			L.Heel.Bottom			L.Heel.Lateral			L.Heel.Top			L.Iliac.Crest			L.MT1			L.MT5			L.PSIS			L.Shank.Bottom.Lateral			L.Shank.Bottom.Medial			L.Shank.Top.Lateral			L.Shank.Top.Medial			L.Thigh.Bottom.Lateral			L.Thigh.Bottom.Medial			L.Thigh.Top.Lateral			L.Thigh.Top.Medial			R.ASIS			R.ASY			R.Heel.Bottom			R.Heel.Lateral			R.Heel.Top			R.Iliac.Crest			R.MT1			R.MT5			R.PSIS			R.Shank.Bottom.Lateral			R.Shank.Bottom.Medial			R.Shank.Top.Lateral			R.Shank.Top.Medial			R.Thigh.Bottom.Lateral			R.Thigh.Bottom.Medial			R.Thigh.Top.Lateral			R.Thigh.Top.Medial			
		X1	Y1	Z1	X2	Y2	Z2	X3	Y3	Z3	X4	Y4	Z4	X5	Y5	Z5	X6	Y6	Z6	X7	Y7	Z7	X8	Y8	Z8	X9	Y9	Z9	X10	Y10	Z10	X11	Y11	Z11	X12	Y12	Z12	X13	Y13	Z13	X14	Y14	Z14	X15	Y15	Z15	X16	Y16	Z16	X17	Y17	Z17	X18	Y18	Z18	X19	Y19	Z19	X20	Y20	Z20	X21	Y21	Z21	X22	Y22	Z22	X23	Y23	Z23	X24	Y24	Z24	X25	Y25	Z25	X26	Y26	Z26	X27	Y27	Z27	X28	Y28	Z28	X29	Y29	Z29	X30	Y30	Z30	X31	Y31	Z31	X32	Y32	Z32	X33	Y33	Z33	

3938	26.24666666666667	1953.322291963537	839.5288854033003	884.4953451861923	1801.01168536961	26.77612985628077	986.5302868254224	1829.567139117045	45.54775853187811	943.3461081366526	1813.921991811907	70.42122607496216	990.1197401195658	1881.570292274667	871.9919519687644	864.7049607411209	2024.142795245871	33.2663981267806	1022.352439220425	1981.241588573186	32.39947172455604	912.6066254144206	1807.054837655043	845.0517702163158	979.3861106617109	1909.183550501719	139.4630879825841	922.9659270114884	1870.42178201624	158.539636444612	950.7371806798656	1925.185028171853	212.8491977153853	891.7304933191419	1892.013961377617	236.483430401092	926.2654601731992	1996.836877578587	513.8941368982738	840.2437152021747	1939.336120455371	492.227651275806	878.6257443959718	1953.22473885725	615.0425383754871	831.3166160209787	1898.400866420808	593.6768233100465	867.937582133719	1980.085618829628	827.348603452177	1122.595542100912	1626.857557478667	281.0183981350151	1061.300803556196	1600.659770654726	465.1269274276262	1023.529979846879	1611.158368563102	438.5027049228175	1071.918030612398	1642.862435961247	448.426074572509	1029.587477750202	1934.025517979335	885.3402017624655	1149.037215006143	1582.847994683065	244.5985035304351	1012.176553308335	1569.12851827449	294.6935725042367	1113.801110351648	1821.355947364432	842.8920417432379	1069.209105981333	1715.814264403263	395.9008340873007	1106.794962794839	1722.262035318812	433.0751157824885	1066.144743744022	1791.050666608783	413.4428481399237	1132.465263084053	1796.845202305511	447.950118753991	1091.558361119373	1988.139031689699	485.9565364298248	1181.348039166356	1935.938306761509	468.9979006327798	1136.054333695979	1953.069769947369	590.7074720555189	1183.73231361913	1900.735381558728	573.1232642387353	1143.734939645413	
3939	26.25333333333333	1951.560629593476	837.7598205343338	884.1774376435022	1777.983681482316	27.94156089197672	986.3313503193405	1806.642600738936	46.5018611937904	943.134754674159	1791.08067000088	71.50207691123885	989.8032654818786	1879.432346021123	868.5931235590999	864.5997970156286	2000.96657297389	33.89255619356955	1022.337744829019	1957.997376312293	32.79594474274261	912.6948681493262	1805.112771699179	843.5740274720129	979.6737680555198	1889.031752806963	139.8417716401674	922.5721565366719	1850.69439045192	160.2795219178685	950.0266045998075	1907.679245065073	212.4356093147178	891.0374285412159	1875.107313414863	237.356184419029	925.2906021365881	1988.640915077694	511.1264408943185	839.1789885864737	1930.122865355537	490.632783755057	876.7777942261542	1947.427129955075	613.317079646059	830.5978877589124	1891.942931238516	593.1111723661801	867.0064813373475	1978.069473098228	824.5794776475897	1122.56880600856	1647.753155406092	275.0803332294599	1061.694573794135	1614.85216627239	458.3346695494369	1026.410851174217	1626.824367068805	431.5698703074423	1074.297643405887	1657.556639840524	443.0730521681726	1031.801767733213	1930.476658888689	881.9961509853829	1149.252332532603	1604.367318263971	237.6561962192041	1012.735028494332	1590.284062372175	286.2552152292093	1115.131046925974	1819.219298958441	840.6279991956412	1069.011042816119	1733.212575248359	391.6086795371589	1108.083634770525	1738.698145392709	429.2820580844314	1067.764505189688	1808.248297551734	410.3968390759181	1133.524652402219	1813.11499911665	445.3539295088792	1092.906120209589	2001.154966641963	487.2169222681673	1181.911421697072	1949.007855743807	467.3953277726708	1137.676391583097	1961.118297087366	590.145790072425	1184.111363630488	1908.921740010123	569.7137379731003	1145.326659383298	
3940	26.26	1950.030295506478	836.6158784636727	883.9417613415302	1754.911748928761	29.4536040499136	986.1270940710848	1783.646803132255	47.59445747574623	942.8175362903459	1768.270460355601	72.91779590625463	989.3065802613797	1877.117185912918	866.2819256335066	864.4067246711364	1977.745860570265	34.32493201638034	1022.209218217128	1934.635320832755	32.96567842314116	912.6635770134729	1803.345398755771	842.8887602588744	979.6885350137032	1868.49770722131	140.6441896491619	922.0272196332613	1830.682844028525	162.2770568576226	949.3279810575046	1889.501428439914	212.4472881293654	890.3343093704555	1857.605792581164	238.5000135371845	924.4313484250491	1979.809808224499	508.8821533912326	838.2335443464459	1920.148605141011	489.7246923901855	874.8629193432021	1941.30602508076	612.143607246659	829.9512090174827	1885.0688500196	593.2401772752152	866.0323875674175	1975.977828415538	822.6055661506209	1122.676011327121	1669.353284159916	268.0018855589463	1062.040407639615	1628.446825464826	449.842179756281	1029.516282478272	1642.135842201596	423.0525061263568	1076.822248528745	1671.694040519559	436.3747333605519	1034.203586415262	1926.531210494163	879.5705467491757	1149.423227664144	1626.893266042367	229.3469446891685	1013.183408298057	1612.228708187921	276.2227920953139	1116.422577074756	1817.164255139455	839.2396071789724	1068.591567738093	1750.491785936845	386.7351605266213	1109.32945786929	1754.629730070418	424.8734796837454	1069.31152811394	1825.176230861717	407.3854847166781	1134.389227840806	1828.735282683266	442.7725588629838	1094.047008495936	2014.101584315624	489.8299089832304	1182.072792573886	1962.13720215596	467.2189971173659	1138.896665505729	1969.135814935128	590.7176820484756	1184.234359315219	1917.185736869436	567.491521986773	1146.671654042781	
3941	26.26666666666667	1948.771400542489	836.0560552057187	883.737669335631	1731.767164040504	31.31537816336088	985.9892750723118	1760.558049958833	48.87603037698677	942.4882701558108	1745.469200733815	74.67194977557692	988.7515034943621	1874.723818510854	865.0785868304213	864.1227004180064	1954.432284233331	34.53499461740412	1022.036354007183	1911.117386417768	32.96164249863779	912.5807920865132	1801.818229031372	842.9323345352798	979.4186681396334	1847.588967534372	141.8468579361386	921.4644091712263	1810.363454388659	164.5177765379192	948.7563865186594	1870.655898805723	212.8877441627765	889.7191823644905	1839.492237107006	239.9237944269232	923.7784020669991	1970.271866054633	507.1348831014388	837.4687921895204	1909.418874062406	489.5228267331637	873.0491586491905	1934.801015233007	611.4779650329141	829.4012130854475	1877.77595529761	594.0612728652857	865.117486897773	1973.919053458922	821.4791188952986	1122.872254739563	1691.587290824657	259.945547696243	1062.381810793453	1641.559734863671	439.6623062319658	1032.687724146867	1657.148055640191	413.0314041796718	1079.372204131931	1685.3489271145	428.325348709986	1036.668710910488	1922.452489700781	878.1007732031602	1149.517709283306	1650.40076953605	219.8418282071519	1013.585161068594	1634.910326858522	264.8406828847699	1117.664528669164	1815.277895406345	838.6719790979133	1067.953982975616	1767.593993231813	381.3499033836273	1110.487252205548	1770.028699731219	419.8597595295017	1070.718103975457	1841.727165783664	404.4559404671941	1135.028170664193	1843.63078864302	440.1958507215247	1094.927060391636	2026.758487769992	493.761102727114	1181.83442022351	1975.151327069593	468.4896870974421	1139.64146177557	1976.985169156177	592.4292538394097	1184.084731099448	1925.430273647272	566.5076646339809	1147.670082042585	
